# xmcd CD database file
#
# Track frame offsets:
#	150
#	7272
#	24950
#	52760
#	76327
#	99500
#	117590
#	136955
#	163827
#	165650
#	191490
#
# Disc length: 2820 seconds
#
# Revision: 0
# Processed by: cddbd v1.5.1PL0 Copyright (c) Steve Scherf et al.
# Submitted via: CDex 1.51
#
DISCID=860b020b
DTITLE=ippei brown - ippei brown
DYEAR=2002
DGENRE=Blues
TTITLE0=intro - first of all (interlude)
TTITLE1=little lady
TTITLE2=don't know
TTITLE3=an affair 〜約束〜
TTITLE4=追憶 〜my heart's memory〜
TTITLE5=more more more
TTITLE6=i wish you're mine -japanese ver.
TTITLE7=no other night
TTITLE8=just for you (interlude)
TTITLE9=my angel
TTITLE10=ended
EXTD=YEAR: 2002
EXTT0=
EXTT1=
EXTT2=
EXTT3=
EXTT4=
EXTT5=
EXTT6=
EXTT7=
EXTT8=
EXTT9=
EXTT10=
PLAYORDER=
